<svg xmlns="http://www.w3.org/2000/svg" width="500" height="444" viewBox="0 0 500 444"><path d="M476.35,472.45H429L360,352.86a41,41,0,0,1,70.95-41l69,119.57Z" transform="translate(-250 -291.41)" fill="#fcbc05"/><path d="M625,729.92a41,41,0,0,1-56-15L500,595.35,431,714.92A41,41,0,1,1,360,674l69-119.57H571L640,674A41,41,0,0,1,625,729.92Z" transform="translate(-250 -291.41)" fill="#e94335"/><path d="M750,513.4a41,41,0,0,1-41,41H571l-23.66-41-23.65-40.95-23.66-41L569,311.9a41,41,0,0,1,71,41L571,472.45H709A41,41,0,0,1,750,513.4Z" transform="translate(-250 -291.41)" fill="#1973e8"/><path d="M476.35,472.45,452.69,513.4l-23.65,41H291a41,41,0,1,1,0-81.93Z" transform="translate(-250 -291.41)" fill="#34a853"/><polygon points="320.96 262.97 179.04 262.97 202.69 221.99 226.35 181.04 249.99 140.06 273.65 181.04 297.3 221.99 320.96 262.97" fill="#174fa7"/></svg>